<svg id="visual" viewBox="0 0 900 900" width="900" height="900" xmlns="http://www.w3.org/2000/svg" xmlns:xlink="http://www.w3.org/1999/xlink" version="1.1"><path d="M0 172L82 172L82 190L164 190L164 154L245 154L245 73L327 73L327 163L409 163L409 226L491 226L491 109L573 109L573 82L655 82L655 199L736 199L736 145L818 145L818 154L900 154L900 136L900 0L900 0L818 0L818 0L736 0L736 0L655 0L655 0L573 0L573 0L491 0L491 0L409 0L409 0L327 0L327 0L245 0L245 0L164 0L164 0L82 0L82 0L0 0Z" fill="#fa7268"></path><path d="M0 271L82 271L82 316L164 316L164 289L245 289L245 226L327 226L327 307L409 307L409 334L491 334L491 244L573 244L573 145L655 145L655 298L736 298L736 253L818 253L818 280L900 280L900 289L900 134L900 152L818 152L818 143L736 143L736 197L655 197L655 80L573 80L573 107L491 107L491 224L409 224L409 161L327 161L327 71L245 71L245 152L164 152L164 188L82 188L82 170L0 170Z" fill="#ea5e66"></path><path d="M0 460L82 460L82 523L164 523L164 631L245 631L245 532L327 532L327 559L409 559L409 541L491 541L491 415L573 415L573 442L655 442L655 613L736 613L736 424L818 424L818 478L900 478L900 586L900 287L900 278L818 278L818 251L736 251L736 296L655 296L655 143L573 143L573 242L491 242L491 332L409 332L409 305L327 305L327 224L245 224L245 287L164 287L164 314L82 314L82 269L0 269Z" fill="#d84a64"></path><path d="M0 712L82 712L82 766L164 766L164 802L245 802L245 793L327 793L327 748L409 748L409 748L491 748L491 784L573 784L573 730L655 730L655 766L736 766L736 829L818 829L818 775L900 775L900 811L900 584L900 476L818 476L818 422L736 422L736 611L655 611L655 440L573 440L573 413L491 413L491 539L409 539L409 557L327 557L327 530L245 530L245 629L164 629L164 521L82 521L82 458L0 458Z" fill="#c53762"></path><path d="M0 901L82 901L82 901L164 901L164 901L245 901L245 901L327 901L327 901L409 901L409 901L491 901L491 901L573 901L573 901L655 901L655 901L736 901L736 901L818 901L818 901L900 901L900 901L900 809L900 773L818 773L818 827L736 827L736 764L655 764L655 728L573 728L573 782L491 782L491 746L409 746L409 746L327 746L327 791L245 791L245 800L164 800L164 764L82 764L82 710L0 710Z" fill="#b0235f"></path></svg>